<svg xmlns="http://www.w3.org/2000/svg" width="750" height="130" viewBox="0 0 750 130">
  <g id="그룹_123" data-name="그룹 123" transform="translate(-1700 -3642)">
    <rect id="사각형_135" data-name="사각형 135" width="750" height="130" transform="translate(1700 3642)" fill="#fff"/>
    <rect id="사각형_136" data-name="사각형 136" width="150" height="130" transform="translate(1700 3642)" fill="#e25007"/>
    <g id="검색" transform="translate(1905 3687)">
      <rect id="사각형_129" data-name="사각형 129" width="40" height="40" fill="none" opacity="0.39"/>
      <path id="패스_1" data-name="패스 1" d="M44.765,40.412a14.6,14.6,0,0,0,3-9,15,15,0,1,0-15,15,14.593,14.593,0,0,0,9-3l13,13,3-3Zm-12,2a11,11,0,1,1,11-11A11.012,11.012,0,0,1,32.765,42.412Z" transform="translate(-17.765 -16.412)" fill="#e25007"/>
    </g>
    <g id="홈" transform="translate(1755 3687)">
      <rect id="사각형_126" data-name="사각형 126" width="40" height="40" fill="none" opacity="0.39"/>
      <path id="패스_4" data-name="패스 4" d="M156.385,32.115l-16-13.958a3.058,3.058,0,0,0-4,0l-16,13.958a2.894,2.894,0,0,0-1,2.18V55.412h3.5v-20.9l15.5-13.522,15.5,13.522v20.9h3.5V34.295A2.9,2.9,0,0,0,156.385,32.115Z" transform="translate(-118.385 -16.412)" fill="#fff"/>
      <path id="패스_5" data-name="패스 5" d="M138.385,37.862a6.914,6.914,0,0,0-7,6.825V55.412h14V44.687A6.915,6.915,0,0,0,138.385,37.862Z" transform="translate(-118.385 -16.412)" fill="#fff"/>
    </g>
    <g id="쿨타임" transform="translate(2055 3687)">
      <rect id="사각형_127" data-name="사각형 127" width="40" height="40" fill="none" opacity="0.39"/>
      <g id="그룹_3" data-name="그룹 3" transform="translate(-170.31 -16.412)">
        <path id="패스_6" data-name="패스 6" d="M182.309,45.912a1.5,1.5,0,0,1-1.121-2.5l7.622-8.574v-9.43a1.5,1.5,0,0,1,3,0v10.57l-8.379,9.426A1.494,1.494,0,0,1,182.309,45.912Z" fill="#e25007"/>
      </g>
      <g id="그룹_4" data-name="그룹 4" transform="translate(-170.31 -16.412)">
        <path id="패스_7" data-name="패스 7" d="M189.4,22.012a14.455,14.455,0,0,1,14.476,14.4h-1.81l3.619,4.5,3.62-4.5H207.5a18.1,18.1,0,1,0-18.1,18v-3.6a14.4,14.4,0,1,1,0-28.8Z" fill="#e25007"/>
        <path id="패스_8" data-name="패스 8" d="M191.006,50.727l.4,3.579c.523-.057,1.041-.137,1.551-.238h0l.041-.008h0l.012,0h0l.026-.005h0l.012,0h0l.027-.006h0l.01,0h0l.025-.005h0l.01,0h0l.011,0h0l.012,0h0l.009,0h0l.01,0h0l.012,0h0l.008,0h0l.009,0h0l.011,0h0l.007,0h.018l.011,0h.006l.006,0h.018l.011,0h.012l.006,0h.006l.006,0h0l.015,0,.005,0h.011l.008,0h0l.017,0h.016l.027-.006h0l.009,0h0l.04-.009h0q.282-.065.561-.139l-.931-3.478A14.485,14.485,0,0,1,191.006,50.727Z" fill="#e25007"/>
        <path id="패스_9" data-name="패스 9" d="M195.18,49.622l1.446,3.3c.4-.173.787-.358,1.169-.558h0l.037-.019h0l.008,0h0l.026-.013h0l.008,0,0,0,.007,0h0l.016-.008h0l.006,0,0,0,.007,0,0,0,.006,0h0l.014-.008,0,0,.006,0,.005,0,.006,0,.005,0,.009-.005.006,0,0,0,.006,0,0,0,.006,0,0,0,.01,0,0,0,.007,0,0,0,.007,0,0,0,.01-.005h0l.011-.006h0l.008-.005,0,0,.01-.005h0l.012-.006h0l.011-.006h0l.01-.006h0l.023-.013h0l.012-.007h0l.036-.02h0q.414-.229.815-.48L197.1,48.613A14.548,14.548,0,0,1,195.18,49.622Z" fill="#e25007"/>
        <path id="패스_10" data-name="패스 10" d="M198.845,47.33l2.36,2.729.027-.023h0l.01-.009h0l.03-.026h0l.009-.008h0l.02-.017h0l.008-.007,0,0,.009-.007h0l.009-.009h0l.008-.007,0,0,.007-.006,0,0,.009-.007h0l.009-.007,0,0,0-.005,0,0,.006-.005,0,0,.008-.008,0,0,.005-.005.005,0,0,0,0,0,0,0,.009-.007,0,0,0,0,0,0,.005,0,0,0,.005-.005h0l.012-.011,0,0,.006-.006,0,0,.007-.006h0l.022-.019v0l.007-.006h0l.031-.027h0q.577-.521,1.108-1.089h0l.028-.03h0l.028-.03h0l.006-.007,0,0,.019-.02,0,0,.005-.006,0,0,.006-.006,0,0,.012-.013h0l.005,0,0,0,0-.005,0,0,.005-.005,0,0,.006-.007.005-.006,0,0,0-.005,0,0,.005-.006,0,0,.008-.009,0,0,.007-.007,0,0,.007-.007,0,0,.017-.019h0l.009-.009h0l.026-.03h0c.068-.075.134-.151.2-.227l-2.742-2.35A14.587,14.587,0,0,1,198.845,47.33Z" fill="#e25007"/>
        <path id="패스_11" data-name="패스 11" d="M201.671,44.066l3.064,1.916a17.973,17.973,0,0,0,.947-1.7h0l.005-.012h0l.011-.024h0l0-.012h0l.017-.035v0l0-.011h0l.011-.024v0l.005-.01v0l.011-.023v0l0-.01,0,0,0-.01v0l.006-.012h0l.005-.011v0l.005-.009v0l.011-.024v0l0-.009,0,0,0-.01v0l0-.011,0,0,0-.008v0l0-.008,0,0,.005-.011h0l.005-.01,0,0,0-.008v0l0-.01v0l.006-.011v0l0-.008,0,0,0-.009v0l.005-.011,0,0,0-.008,0,0,0-.007,0-.005,0-.009,0,0,0-.009,0,0,0-.006,0-.005,0-.006,0-.005.005-.011,0,0,0-.007,0-.005,0-.007,0,0,.005-.011,0,0,0-.007,0-.005,0-.006,0-.006,0-.007,0,0,0-.009,0,0,0-.006,0-.006,0-.006,0-.005.005-.01,0-.006,0-.005,0-.006,0-.006,0,0,0-.007,0-.008,0-.007,0-.005,0-.006,0-.006h0l-3.319-1.437A14.309,14.309,0,0,1,201.671,44.066Z" fill="#e25007"/>
      </g>
    </g>
    <g id="채팅" transform="translate(2205 3687)">
      <rect id="사각형_123" data-name="사각형 123" width="40" height="40" fill="none" opacity="0.39"/>
      <path id="패스_12" data-name="패스 12" d="M256.456,22.412a3.8,3.8,0,0,1,3.794,3.8v8.411a3.8,3.8,0,0,1-3.794,3.794H236.044a3.8,3.8,0,0,1-3.794-3.794V26.207a3.8,3.8,0,0,1,3.794-3.8h20.412m0-3H236.044a6.788,6.788,0,0,0-6.794,6.781v8.393a6.788,6.788,0,0,0,6.794,6.781h.819l-.585,2.917a1.437,1.437,0,0,0,2.513,1.2l3.438-4.117h14.227a6.788,6.788,0,0,0,6.794-6.781V26.193a6.788,6.788,0,0,0-6.794-6.781Z" transform="translate(-228.25 -16.412)" fill="#e25007"/>
      <path id="패스_13" data-name="패스 13" d="M262.854,36H249.646a4.418,4.418,0,0,0-4.4,4.44v5.5a4.418,4.418,0,0,0,4.4,4.441h9.206l2.224,2.7a.923.923,0,0,0,1.13.239.94.94,0,0,0,.5-1.024l-.378-1.911h.53a4.418,4.418,0,0,0,4.4-4.441v-5.5A4.418,4.418,0,0,0,262.854,36Z" transform="translate(-228.25 -16.412)" fill="#e25007"/>
    </g>
    <g id="마이페이지" transform="translate(2355 3687)">
      <g id="그룹_100" data-name="그룹 100" transform="translate(275.265 428.588)">
        <rect id="사각형_124" data-name="사각형 124" width="40" height="40" transform="translate(-275.265 -428.588)" fill="none" opacity="0.39"/>
        <g id="타원_1" data-name="타원 1" transform="translate(-264.265 -427.588)" fill="none" stroke="#e25007" stroke-width="4">
          <circle cx="9" cy="9" r="9" stroke="none"/>
          <circle cx="9" cy="9" r="7" fill="none"/>
        </g>
      </g>
      <path id="패스_30" data-name="패스 30" d="M311.5,41.412a6.007,6.007,0,0,1,6,6v8h4v-8a10,10,0,0,0-10-10h-16a10,10,0,0,0-10,10v8h4v-8a6.007,6.007,0,0,1,6-6h16" transform="translate(-283.5 -16.412)" fill="#e25007"/>
    </g>
  </g>
</svg>
