<svg xmlns="http://www.w3.org/2000/svg" width="750" height="120" viewBox="0 0 750 120">
  <g id="그룹_116" data-name="그룹 116" transform="translate(0 -90)">
    <g id="그룹_1" data-name="그룹 1">
      <rect id="사각형_3" data-name="사각형 3" width="750" height="120" transform="translate(0 90)" fill="none"/>
    </g>
    <g id="그룹_114" data-name="그룹 114">
      <g id="그룹_112" data-name="그룹 112" transform="translate(-1127.985 268.588)">
        <g id="그룹_96" data-name="그룹 96" transform="translate(2278 290)">
          <rect id="사각형_128" data-name="사각형 128" width="40" height="40" transform="translate(-492.015 -428.588)" fill="none" opacity="0.39"/>
          <path id="패스_2" data-name="패스 2" d="M104.578,47.535l-2.828-4.476c-.252-.427-.915-1.069-.915-1.562l.394-7.873a14.155,14.155,0,0,0-11.8-13.781v-.625a2.844,2.844,0,0,0-5.687,0V19.9A14.148,14.148,0,0,0,72.271,33.624V41.1a5.292,5.292,0,0,1-.521,1.956l-2.828,4.476a1.255,1.255,0,0,0,1.124,1.877h33.408A1.255,1.255,0,0,0,104.578,47.535ZM74.043,45.958l.677-1.072.028-.045.027-.045a8.435,8.435,0,0,0,1-3.693V33.624a10.987,10.987,0,0,1,21.958,0V41.1a8.435,8.435,0,0,0,1,3.693l.027.045.028.045.677,1.072Z" transform="translate(-558.765 -445)"/>
        </g>
        <path id="패스_29" data-name="패스 29" d="M86.75,56.412a6,6,0,0,0,6-6h-12A6,6,0,0,0,86.75,56.412Z" transform="translate(1719.235 -155)"/>
      </g>
      <g id="그룹_115" data-name="그룹 115" transform="translate(-22.303 -1813.568)">
        <path id="패스_17" data-name="패스 17" d="M329.072,1980.775c0,6.095-4.268,9.926-10.672,9.023q-4.514-.644-9.028-1.57a5.33,5.33,0,0,1-4.069-4.969v-24.953a3.1,3.1,0,0,1,3.963-3.084q3.961.82,7.921,1.414c6.257.933,10.429,5.185,10.429,11.168a7.9,7.9,0,0,1-1.532,5.023.749.749,0,0,0,.121,1.011A9.033,9.033,0,0,1,329.072,1980.775ZM314.519,1964.7v3.638a.894.894,0,0,0,.728.849h0c1.892.31,3.153-.536,3.153-2.087,0-1.505-1.164-2.635-2.91-2.966l-.243-.04A.6.6,0,0,0,314.519,1964.7Zm1.94,17.051c2.037.316,3.4-.627,3.4-2.323,0-1.65-1.261-2.878-3.153-3.218q-.728-.112-1.455-.232a.6.6,0,0,0-.728.606v4.124a.894.894,0,0,0,.728.849Q315.854,1981.653,316.46,1981.748Z" transform="translate(0 -7.471)" fill="#e25007"/>
        <path id="패스_18" data-name="패스 18" d="M383.964,2007.082a.72.72,0,0,0-.42,1.314,5.582,5.582,0,0,0,2.7.906,16.079,16.079,0,0,0,7.718-1.292.713.713,0,0,1,1.014.644v5.213a.754.754,0,0,1-.426.674,20.892,20.892,0,0,1-8.79,1.789c-6.985-.092-11.642-5.355-11.642-12.619,0-7.289,4.657-11.727,11.642-11.635,6.985-.017,11.642,4.206,11.642,11.012a15.757,15.757,0,0,1-.389,3.335.754.754,0,0,1-.708.583C392.188,2007.136,388.076,2007.17,383.964,2007.082Zm-.794-5.84q2.586.066,5.172.068a.73.73,0,0,0,.554-1.2,4.191,4.191,0,0,0-3.14-1.483,4.078,4.078,0,0,0-3.14,1.4A.744.744,0,0,0,383.17,2001.242Z" transform="translate(-44.446 -32.823)" fill="#e25007"/>
        <path id="패스_19" data-name="패스 19" d="M441.644,1992.8v-26.859a2.5,2.5,0,0,1,2.431-2.421q1.934-.086,3.869-.2a2.216,2.216,0,0,1,2.431,2.174v26.859a2.558,2.558,0,0,1-2.431,2.469q-1.934.11-3.869.2A2.262,2.262,0,0,1,441.644,1992.8Z" transform="translate(-88.022 -12.754)" fill="#e25007"/>
        <path id="패스_20" data-name="패스 20" d="M470.285,1991.772v-27.7a2.643,2.643,0,0,1,2.431-2.573q1.934-.148,3.869-.315a2.175,2.175,0,0,1,2.431,2.179v27.7a2.688,2.688,0,0,1-2.431,2.611q-1.935.166-3.869.315A2.209,2.209,0,0,1,470.285,1991.772Z" transform="translate(-106.512 -11.371)" fill="#e25007"/>
        <path id="패스_21" data-name="패스 21" d="M514.413,1984.426q2.7-.312,5.394-.632a1.533,1.533,0,0,1,1.625,2.107q-4.968,14.629-9.936,29.241a1.992,1.992,0,0,1-1.625,1.333q-2.52.282-5.04.55a1.555,1.555,0,0,1-1.618-2.151q1.164-3.279,2.327-6.561a1.729,1.729,0,0,0,.011-1.164q-3.381-9.359-6.762-18.753a1.907,1.907,0,0,1,1.628-2.449q2.7-.267,5.408-.557a1.514,1.514,0,0,1,1.683,1.168l2.185,9.591c.1.443.75.37.85-.1q1.093-5.04,2.185-10.082A2,2,0,0,1,514.413,1984.426Z" transform="translate(-124.846 -27.466)" fill="#e25007"/>
        <path id="패스_22" data-name="패스 22" d="M585.207,1955.716l-.609.064a2.417,2.417,0,0,0-2.121,2.347v20.012a2.428,2.428,0,0,1-2.121,2.353q-2.73.3-5.46.619a1.85,1.85,0,0,1-2.121-1.874v-20.012a1.848,1.848,0,0,0-2.121-1.872l-.609.072a1.846,1.846,0,0,1-2.121-1.87v-4.49a2.453,2.453,0,0,1,2.121-2.372c5.054-.6,10.107-1.182,15.161-1.709a1.878,1.878,0,0,1,2.121,1.9v4.49A2.407,2.407,0,0,1,585.207,1955.716Z" transform="translate(-169.543 -2.199)" fill="#e25007"/>
        <path id="패스_23" data-name="패스 23" d="M625.026,1948.363a4.388,4.388,0,0,1,4.362-4.777,3.947,3.947,0,0,1,4.369,3.995,4.352,4.352,0,0,1-4.362,4.736A3.916,3.916,0,0,1,625.026,1948.363Z" transform="translate(-206.413)" fill="#a2ce4d"/>
        <path id="패스_24" data-name="패스 24" d="M625.026,1994.438v-15.9a3.6,3.6,0,0,1,3.2-3.514q1.16-.108,2.321-.211a2.9,2.9,0,0,1,3.205,2.935v15.9a3.56,3.56,0,0,1-3.205,3.476q-1.161.1-2.321.21A2.863,2.863,0,0,1,625.026,1994.438Z" transform="translate(-206.413 -20.833)" fill="#e25007"/>
        <path id="패스_25" data-name="패스 25" d="M691.329,1980.135v12.434a.612.612,0,0,1-.663.618q-3.7-.24-7.405-.334a.683.683,0,0,1-.663-.679V1980.71c0-1.843-.679-2.928-1.94-2.945s-1.94,1.05-1.94,2.892v11.464a.661.661,0,0,1-.663.661q-3.7-.006-7.405.106a.639.639,0,0,1-.663-.642v-11.464c0-1.843-.679-2.89-1.941-2.841s-1.94,1.15-1.94,2.993V1992.4a.7.7,0,0,1-.663.694q-3.7.179-7.406.447a.608.608,0,0,1-.662-.615v-20.988a.724.724,0,0,1,.662-.711q3.274-.234,6.548-.4a.623.623,0,0,1,.652.508h0a.637.637,0,0,0,1,.394,9.642,9.642,0,0,1,5.207-1.655,6.2,6.2,0,0,1,5.011,2.009.665.665,0,0,0,.924.075,9.707,9.707,0,0,1,6.676-2.074C688.71,1970.223,691.329,1973.934,691.329,1980.135Z" transform="translate(-227.251 -17.698)" fill="#e25007"/>
        <path id="패스_26" data-name="패스 26" d="M768.6,1988.43a.683.683,0,0,0-.42,1.265,6.722,6.722,0,0,0,2.7,1.256,18.588,18.588,0,0,0,7.718.168.918.918,0,0,1,1.014.886v5.214a.561.561,0,0,1-.426.571,25.058,25.058,0,0,1-8.791.12c-6.985-1.051-11.642-6.171-11.641-13.467,0-7.256,4.657-11.837,11.641-10.786a13.283,13.283,0,0,1,11.642,13.412,14.314,14.314,0,0,1-.389,3.229.558.558,0,0,1-.708.4C776.828,1989.753,772.716,1989.008,768.6,1988.43Zm-.794-5.93q2.586.35,5.172.79c.621.106.955-.562.555-1.107a4.915,4.915,0,0,0-3.141-1.978,3.533,3.533,0,0,0-3.14,1.019A.8.8,0,0,0,767.81,1982.5Z" transform="translate(-292.734 -20.032)" fill="#e25007"/>
      </g>
      <g id="그룹_107" data-name="그룹 107" transform="translate(378.515 505.486)">
        <rect id="사각형_121" data-name="사각형 121" width="40" height="40" transform="translate(-290.515 -335.486) rotate(-180)" fill="none" opacity="0.39"/>
        <path id="패스_26-2" data-name="패스 26" d="M241.625,76.514l2.746,2.669L235.8,87.514h32.45v4H235.8l8.571,8.331-2.746,2.669-13.375-13Z" transform="translate(-558.765 -445)"/>
      </g>
    </g>
  </g>
</svg>
